<?xml version="1.0" encoding="utf-8"?>
<!-- Generator: Adobe Illustrator 15.0.0, SVG Export Plug-In . SVG Version: 6.00 Build 0)  -->
<!DOCTYPE svg PUBLIC "-//W3C//DTD SVG 1.1//EN" "http://www.w3.org/Graphics/SVG/1.1/DTD/svg11.dtd">
<svg version="1.1" id="图层_1" xmlns="http://www.w3.org/2000/svg" xmlns:xlink="http://www.w3.org/1999/xlink" x="0px" y="0px"
	 width="200px" height="200px" viewBox="0 0 200 200" enable-background="new 0 0 200 200" xml:space="preserve">
<path fill="#B70000" d="M17.075,91.663c3.972-39.432,35.156-70.616,74.587-74.587V0h16.675v17.075
	c39.432,3.972,70.615,35.156,74.587,74.587H200v16.675h-17.075c-3.972,39.432-35.155,70.615-74.587,74.587V200H91.663v-17.075
	c-39.432-3.972-70.616-35.155-74.587-74.587H0V91.663H17.075z M100,166.662c36.816,0.008,66.669-29.831,66.677-66.648
	s-29.832-66.669-66.648-66.677c-0.009,0-0.019,0-0.028,0c-36.817,0.008-66.656,29.86-66.648,66.677
	C33.359,136.82,63.194,166.654,100,166.662z M100,133.338c18.412,0,33.338-14.926,33.338-33.338
	c0-18.412-14.926-33.337-33.338-33.337c-18.412,0-33.337,14.926-33.337,33.337C66.663,118.412,81.588,133.338,100,133.338z"/>
</svg>
