<?xml version="1.0" encoding="utf-8"?>
<!-- Generator: Adobe Illustrator 15.0.0, SVG Export Plug-In . SVG Version: 6.00 Build 0)  -->
<!DOCTYPE svg PUBLIC "-//W3C//DTD SVG 1.1//EN" "http://www.w3.org/Graphics/SVG/1.1/DTD/svg11.dtd">
<svg version="1.1" id="图层_1" xmlns="http://www.w3.org/2000/svg" xmlns:xlink="http://www.w3.org/1999/xlink" x="0px" y="0px"
	 width="200px" height="200px" viewBox="0 0 200 200" enable-background="new 0 0 200 200" xml:space="preserve">
<path fill="#D9231E" d="M185.938,175L145.9,134.963c11.199-13.805,16.8-29.625,16.8-47.463c0-20.704-7.325-38.379-21.976-53.025
	C126.075,19.829,108.367,12.504,87.6,12.5c-20.767-0.004-38.475,7.321-53.125,21.975C19.825,49.129,12.5,66.837,12.5,87.6
	c0,20.762,7.325,38.47,21.975,53.125S66.8,162.704,87.5,162.7c17.838,0,33.594-5.534,47.269-16.601l40.038,39.844
	c1.563,1.563,3.418,2.344,5.568,2.344s3.973-0.748,5.469-2.243c1.496-1.496,2.244-3.319,2.244-5.469c0-2.15-0.717-4.007-2.15-5.569
	V175z M111.331,143.75c-7.554,3.254-15.498,4.881-23.831,4.881c-8.204,0-16.081-1.627-23.631-4.881
	c-7.292-2.996-13.802-7.294-19.531-12.894c-5.6-5.729-9.962-12.239-13.087-19.531c-3.125-7.554-4.688-15.498-4.688-23.832
	c0-8.204,1.563-16.081,4.688-23.631c3.125-7.292,7.487-13.737,13.087-19.337c5.729-5.729,12.24-10.156,19.531-13.281
	c7.554-3.125,15.431-4.688,23.631-4.688c8.333,0,16.277,1.563,23.831,4.688c7.292,3.125,13.769,7.519,19.432,13.181
	c5.662,5.663,9.991,12.14,12.987,19.432c3.254,7.554,4.881,15.498,4.881,23.831c0,8.204-1.627,16.081-4.881,23.631
	c-2.996,7.292-7.294,13.803-12.894,19.531c-5.729,5.601-12.239,9.898-19.531,12.895L111.331,143.75z"/>
</svg>
