<?xml version="1.0" standalone="no"?><!DOCTYPE svg PUBLIC "-//W3C//DTD SVG 1.1//EN" "http://www.w3.org/Graphics/SVG/1.1/DTD/svg11.dtd"><svg t="1735091565537" class="icon" viewBox="0 0 1024 1024" version="1.1" xmlns="http://www.w3.org/2000/svg" p-id="7634" xmlns:xlink="http://www.w3.org/1999/xlink" width="200" height="200"><path d="M501.094 1021.824c6.938 2.893 14.823 2.893 21.812 0 3.43-1.434 6.528-3.482 9.113-6.067 0.026 0 0.077-0.026 0.077-0.026l158.925-158.925c11.11-11.11 11.11-29.132 0-40.217-11.085-11.085-29.082-11.085-40.167 0.025L540.416 927.027l0.026-335.36c0-15.693-12.724-28.416-28.416-28.416s-28.416 12.698-28.416 28.39v335.386L373.197 816.614c-11.11-11.084-29.107-11.084-40.141 0-11.11 11.11-11.136 29.108-0.051 40.192l158.95 158.925c0.82 0.82 1.895 1.178 2.816 1.869 1.946 1.587 3.917 3.226 6.323 4.224zM522.906 2.176c-6.938-2.893-14.823-2.893-21.786 0a28.167 28.167 0 0 0-9.14 6.042c-0.025 0-0.076 0.05-0.076 0.05l-158.925 158.9c-11.11 11.11-11.11 29.133 0 40.218 11.085 11.084 29.082 11.084 40.167-0.026L483.584 96.947l-0.026 335.36c0 15.693 12.724 28.416 28.416 28.416 15.693 0 28.442-12.697 28.442-28.39V96.947L650.829 207.36c11.11 11.085 29.107 11.085 40.14 0 11.111-11.11 11.162-29.107 0.052-40.192L532.07 8.268c-0.82-0.844-1.895-1.202-2.817-1.894-1.97-1.561-3.942-3.2-6.348-4.198zM1021.824 522.906c2.893-6.938 2.893-14.823 0-21.812a27.788 27.788 0 0 0-6.042-9.113c0-0.026-0.05-0.077-0.05-0.077l-158.9-158.925c-11.11-11.11-29.158-11.11-40.243 0-11.06 11.085-11.06 29.082 0.051 40.167l110.387 110.438-335.36-0.026c-15.693 0-28.39 12.724-28.39 28.416s12.697 28.416 28.39 28.416h335.36L816.64 650.803c-11.11 11.11-11.11 29.107 0 40.141 11.11 11.11 29.107 11.136 40.192 0.051l158.9-158.95c0.844-0.82 1.202-1.895 1.894-2.816 1.561-1.946 3.2-3.917 4.198-6.323zM2.176 501.094c-2.893 6.938-2.893 14.823 0 21.786a27.633 27.633 0 0 0 6.042 9.14l0.05 0.05 158.9 158.95c11.11 11.111 29.158 11.111 40.243 0 11.06-11.11 11.06-29.106-0.051-40.191L96.973 540.39l335.36 0.052c15.693 0 28.39-12.75 28.39-28.416 0-15.693-12.697-28.442-28.39-28.442l-335.36 0.026L207.36 373.197c11.11-11.11 11.11-29.107 0-40.141-11.11-11.11-29.107-11.162-40.192-0.051l-158.9 158.95c-0.844 0.82-1.202 1.895-1.894 2.816-1.561 1.946-3.2 3.917-4.198 6.323z" fill="" p-id="7635"></path></svg>