<?xml version="1.0" standalone="no"?><!DOCTYPE svg PUBLIC "-//W3C//DTD SVG 1.1//EN" "http://www.w3.org/Graphics/SVG/1.1/DTD/svg11.dtd"><svg t="1735091545126" class="icon" viewBox="0 0 1024 1024" version="1.1" xmlns="http://www.w3.org/2000/svg" p-id="6662" xmlns:xlink="http://www.w3.org/1999/xlink" width="200" height="200"><path d="M951 512h-62.7c-4.9 0-9 4-9 9v342.4c0 8.8-7.2 16-16 16H160.6c-8.8 0-16-7.2-16-16V160.6c0-8.8 7.2-16 16-16H503c4.9 0 9-4 9-9V73c0-4.9-4-9-9-9H99.8C80 64 64 80 64 99.8v824.3c0 19.8 16 35.8 35.8 35.8h824.3c19.8 0 35.8-16 35.8-35.8V521c0.1-5-4-9-8.9-9z" p-id="6663"></path><path d="M337.2 537.6l-2.1 133.2c-0.1 10 8 18.1 17.9 18.1h0.4l132.2-3.2c2.2-0.1 4.5-1 6-2.6l465.8-464.8c3.5-3.5 3.5-9.2 0-12.7l-139.2-139c-1.8-1.8-4-2.6-6.4-2.6s-4.6 0.9-6.4 2.6L339.7 531.4c-1.5 1.7-2.5 3.9-2.5 6.2z m75.7 21.9l387.6-386.8c6.2-6.2 16.4-6.2 22.6 0l28 27.9c6.3 6.3 6.3 16.4 0 22.7l-387.9 387c-2.9 2.9-6.8 4.6-10.9 4.7l-28.2 0.7c-9.1 0.2-16.5-7.2-16.4-16.2 0.1-9.8 0.3-21.7 0.4-28.8 0.1-4.3 1.8-8.3 4.8-11.2z" p-id="6664"></path></svg>