<?xml version="1.0" standalone="no"?><!DOCTYPE svg PUBLIC "-//W3C//DTD SVG 1.1//EN" "http://www.w3.org/Graphics/SVG/1.1/DTD/svg11.dtd"><svg t="1745236235767" class="icon" viewBox="0 0 1024 1024" version="1.1" xmlns="http://www.w3.org/2000/svg" p-id="8015" xmlns:xlink="http://www.w3.org/1999/xlink" width="200" height="200"><path d="M938.666667 955.733333H85.333333a17.066667 17.066667 0 1 1 0-34.133333h68.266667V682.666667a17.066667 17.066667 0 0 1 17.066667-17.066667h170.666666a17.066667 17.066667 0 0 1 17.066667 17.066667v238.933333h51.2V85.333333a17.066667 17.066667 0 0 1 17.066667-17.066666h170.666666a17.066667 17.066667 0 0 1 17.066667 17.066666v836.266667h51.2V341.333333a17.066667 17.066667 0 0 1 17.066667-17.066666h170.666666a17.066667 17.066667 0 0 1 17.066667 17.066666v580.266667h68.266667a17.066667 17.066667 0 1 1 0 34.133333z m-238.933334-34.133333h136.533334V358.4h-136.533334v563.2z m-256 0h136.533334V102.4h-136.533334v819.2z m-256 0h136.533334V699.733333h-136.533334v221.866667z" p-id="8016" fill="#d4237a"></path></svg>