<?xml version="1.0" standalone="no"?><!DOCTYPE svg PUBLIC "-//W3C//DTD SVG 1.1//EN" "http://www.w3.org/Graphics/SVG/1.1/DTD/svg11.dtd"><svg t="1744333578301" class="icon" viewBox="0 0 1024 1024" version="1.1" xmlns="http://www.w3.org/2000/svg" p-id="7040" xmlns:xlink="http://www.w3.org/1999/xlink" width="200" height="200"><path d="M973.61 750.237H853.432V630.04c0-26.71-20.033-46.744-46.744-46.744s-46.743 20.034-46.743 46.744v126.875H626.39c-26.71 0-46.744 20.033-46.744 46.744s20.034 46.744 46.744 46.744h126.875v126.855c0 26.71 20.034 46.744 46.744 46.744s46.744-20.034 46.744-46.744V850.403H973.61c26.711 0 46.744-20.033 46.744-46.744 6.678-26.71-20.032-53.422-46.744-53.422zM505.222 871.61H87.138c-15.5 0-27.136-11.634-27.136-27.176V85.322c0-15.512 11.635-27.146 27.136-27.146h740.858c15.48 0 27.116 11.635 27.116 27.146v410.313c0 15.5 11.657 27.137 27.177 27.137 15.5 0 27.136-11.636 27.136-27.137V58.177c0-31.031-27.136-58.178-58.177-58.178H60.001C28.98-0.001 1.824 27.146 1.824 58.177V871.61c0 31.001 27.156 58.157 58.177 58.157h445.221c15.5 0 27.136-11.656 27.136-27.156-0.002-19.387-11.637-31.001-27.136-31.001z m-5.708-134.728c20.033-40.066 66.777-66.778 113.52-66.778h53.422v-60.098c0-53.422 33.39-100.166 80.132-120.198l-66.776-200.32-233.718 300.486-66.778-106.843-247.054 253.75h367.252zM379.316 309.51c0-40.054-33.388-73.444-73.453-73.444s-73.454 33.39-73.454 73.444c0 40.067 33.388 73.455 73.454 73.455s73.453-33.388 73.453-73.455z" p-id="7041"></path></svg>