<?xml version="1.0" encoding="utf-8"?>
<!-- Generator: Adobe Illustrator 15.0.0, SVG Export Plug-In . SVG Version: 6.00 Build 0)  -->
<!DOCTYPE svg PUBLIC "-//W3C//DTD SVG 1.1//EN" "http://www.w3.org/Graphics/SVG/1.1/DTD/svg11.dtd">
<svg version="1.1" xmlns="http://www.w3.org/2000/svg" xmlns:xlink="http://www.w3.org/1999/xlink" x="0px" y="0px"
	 width="88.836px" height="89.5px" viewBox="0 0 88.836 89.5" enable-background="new 0 0 88.836 89.5" xml:space="preserve">
<g id="图层_1">
</g>
<g id="图层_2">
	<g>
		<g>
			<path fill="#EDEFE6" stroke="#C9C9C9" d="M44.418,0.5C20.163,0.5,0.5,20.312,0.5,44.75S20.163,89,44.418,89
				s43.918-19.812,43.918-44.25S68.673,0.5,44.418,0.5z M44.418,81.567c-20.181,0-36.541-16.483-36.541-36.817
				S24.237,7.933,44.418,7.933S80.959,24.416,80.959,44.75S64.599,81.567,44.418,81.567z"/>
			<ellipse fill="#45ADED" cx="44.418" cy="44.75" rx="36.541" ry="36.817"/>
		</g>
		<g>
			<path fill="#FFFFFF" d="M40.178,17.305c0.784-0.271,1.712-0.624,2.784-1.063v-2.839h-2.595v-0.667h2.595v-2.531h0.73v8.658h-0.73
				v-1.869c-0.577,0.234-1.409,0.575-2.496,1.022L40.178,17.305z M45.485,10.187h0.729v3.051c0.82-0.421,1.586-0.882,2.298-1.384
				l0.451,0.649c-0.649,0.408-1.565,0.908-2.749,1.5v3.312c0,0.408,0.226,0.612,0.676,0.612h0.631c0.433,0,0.676-0.204,0.73-0.612
				c0.054-0.379,0.102-0.871,0.144-1.479c0.264,0.108,0.52,0.205,0.766,0.289c-0.061,0.57-0.126,1.057-0.198,1.459
				c-0.114,0.686-0.538,1.027-1.271,1.027H46.72c-0.823,0-1.234-0.405-1.234-1.216V10.187z"/>
		</g>
		<g>
			<path fill="#FFFFFF" d="M69.305,43.768l0.604,0.459c-0.685,0.806-1.466,1.634-2.343,2.487c-0.156-0.168-0.328-0.337-0.514-0.505
				C67.852,45.452,68.603,44.639,69.305,43.768z M67.99,43.227v-0.685l1.032-2.396h-1.771v-0.685h2.063l0.532-1.235l0.774,0.163
				l-0.468,1.072h5.767v0.685h-6.064l-1.045,2.396h2.712v-1.974h0.757v1.974h3.217v0.685h-3.217v2.658
				c0,0.751-0.391,1.126-1.171,1.126c-0.396,0-0.847-0.003-1.352-0.009c-0.036-0.234-0.081-0.505-0.135-0.811
				c0.396,0.051,0.823,0.078,1.28,0.081c0.414,0.003,0.622-0.211,0.622-0.64v-2.406H67.99z M73.153,44.371l0.505-0.495
				c0.829,0.685,1.657,1.402,2.486,2.153l-0.559,0.567C74.763,45.786,73.952,45.044,73.153,44.371z"/>
		</g>
		<g>
			<path fill="#FFFFFF" d="M40.295,70.391h4.045v-1.018h0.739v1.018h3.947v0.641H45.08v0.919h3.451v5.108
				c0,0.703-0.349,1.058-1.045,1.063c-0.396,0.006-0.892-0.003-1.486-0.027c-0.036-0.222-0.082-0.469-0.135-0.738
				c0.595,0.035,1.048,0.054,1.36,0.054c0.396,0,0.595-0.174,0.595-0.522v-4.307h-6.235v5.577h-0.712V71.95h3.469v-0.919h-4.045
				V70.391z M41.935,75.645h2.415v-0.982h-2.126v-0.595h2.829c0.288-0.433,0.58-0.907,0.874-1.424l0.667,0.369
				c-0.294,0.403-0.562,0.754-0.802,1.055h1.388v0.595h-2.126v0.982h2.415v0.594h-2.415v1.73H44.35v-1.73h-2.415V75.645z
				 M42.818,73.004l0.531-0.36c0.307,0.354,0.586,0.7,0.838,1.036l-0.594,0.369C43.353,73.701,43.094,73.353,42.818,73.004z"/>
		</g>
		<g>
			<path fill="#FFFFFF" d="M11.353,38.856h8.758v0.649h-2.91v1.333h2.55v6.325H19.03v-0.559h-6.416v0.559h-0.721v-6.325h2.46
				c0.012-0.426,0.021-0.871,0.027-1.333h-3.027V38.856z M19.03,45.957v-1.568h-1.667c-0.583,0-0.874-0.33-0.874-0.99v-1.911h-1.442
				c-0.06,1.406-0.643,2.518-1.747,3.334c-0.15-0.186-0.331-0.378-0.541-0.576c0.973-0.637,1.496-1.556,1.567-2.758h-1.712v4.47
				H19.03z M15.074,40.839h1.415v-1.333h-1.396C15.085,39.986,15.08,40.431,15.074,40.839z M17.632,43.74h1.397v-2.253h-1.829v1.803
				C17.201,43.59,17.344,43.74,17.632,43.74z"/>
		</g>
	</g>
</g>
</svg>
